<!DOCTYPE svg PUBLIC "-//W3C//DTD SVG 1.1//EN" "http://www.w3.org/Graphics/SVG/1.1/DTD/svg11.dtd">
<!-- Uploaded to: SVG Repo, www.svgrepo.com, Transformed by: SVG Repo Mixer Tools -->
<svg fill="#ffffff" width="800px" height="800px" viewBox="0 0 256 256" id="Flat" xmlns="http://www.w3.org/2000/svg" stroke="#ffffff">
<g id="SVGRepo_bgCarrier" stroke-width="0"/>
<g id="SVGRepo_tracerCarrier" stroke-linecap="round" stroke-linejoin="round"/>
<g id="SVGRepo_iconCarrier"> <path d="M108,60.0001a16,16,0,1,1-16-16A16.00016,16.00016,0,0,1,108,60.0001Zm56,16a16,16,0,1,0-16-16A16.00016,16.00016,0,0,0,164,76.0001Zm-72,36a16,16,0,1,0,16,16A15.99985,15.99985,0,0,0,92,112.0001Zm72,0a16,16,0,1,0,16,16A15.99985,15.99985,0,0,0,164,112.0001Zm-72,68a16,16,0,1,0,16,16A15.99985,15.99985,0,0,0,92,180.0001Zm72,0a16,16,0,1,0,16,16A15.99985,15.99985,0,0,0,164,180.0001Z"/> </g>
</svg>